<?xml version="1.0" encoding="UTF-8"?>
<svg xmlns="http://www.w3.org/2000/svg" viewBox="0 0 192 52" width="192" height="52" role="img" aria-label="QantumIQ — Intelligence at the Quantum Scale">
  <title>QantumIQ — Intelligence at the Quantum Scale</title>

  <!-- Q₁: QUANTUM — atom inside (light bg, navy) -->
  <g transform="translate(22,26)">
    <circle r="20" fill="none" stroke="#0B2240" stroke-width="2"/>
    <line x1="14" y1="13" x2="21" y2="20" stroke="#0B2240" stroke-width="2.8" stroke-linecap="round"/>
    <ellipse rx="11" ry="4.4" fill="none" stroke="#00C8E8" stroke-width="1.15" opacity="0.88"/>
    <circle r="1.9" fill="#00C8E8"><animateMotion dur="3s" repeatCount="indefinite" begin="0s" path="M11,0 A11,4.4,0,0,1,-11,0 A11,4.4,0,0,1,11,0"/></circle>
    <g transform="rotate(60)">
      <ellipse rx="11" ry="4.4" fill="none" stroke="#00C8E8" stroke-width="1.15" opacity="0.88"/>
      <circle r="1.9" fill="#00C8E8"><animateMotion dur="3s" repeatCount="indefinite" begin="1s" path="M11,0 A11,4.4,0,0,1,-11,0 A11,4.4,0,0,1,11,0"/></circle>
    </g>
    <g transform="rotate(-60)">
      <ellipse rx="11" ry="4.4" fill="none" stroke="#00C8E8" stroke-width="1.15" opacity="0.88"/>
      <circle r="1.9" fill="#00C8E8"><animateMotion dur="3s" repeatCount="indefinite" begin="2s" path="M11,0 A11,4.4,0,0,1,-11,0 A11,4.4,0,0,1,11,0"/></circle>
    </g>
    <circle r="2.8" fill="#00C8E8">
      <animate attributeName="r" values="2.8;3.9;2.8" dur="2.2s" repeatCount="indefinite"/>
      <animate attributeName="opacity" values="1;0.5;1" dur="2.2s" repeatCount="indefinite"/>
    </circle>
  </g>

  <text x="46" y="38" font-family="IBM Plex Sans,Arial,sans-serif" font-weight="700" font-size="28" fill="#0B2240" letter-spacing="-0.5">antum</text>
  <text x="133" y="38" font-family="IBM Plex Sans,Arial,sans-serif" font-weight="700" font-size="28" fill="#00C8E8" letter-spacing="-0.5">I</text>

  <!-- Q₂: IQ — brain inside (cyan) -->
  <g transform="translate(161,26)">
    <circle r="18" fill="none" stroke="#00C8E8" stroke-width="2"/>
    <line x1="13" y1="12" x2="19" y2="18" stroke="#00C8E8" stroke-width="2.8" stroke-linecap="round"/>
    <path d="M0,-11 C-2,-13 -9,-12 -11,-7 C-13,-2 -12,4 -9,8 C-7,10 -3,11 0,11" fill="none" stroke="#00C8E8" stroke-width="1.5" stroke-linecap="round" opacity="0.92"/>
    <path d="M0,-11 C2,-13 9,-12 11,-7 C13,-2 12,4 9,8 C7,10 3,11 0,11" fill="none" stroke="#00C8E8" stroke-width="1.5" stroke-linecap="round" opacity="0.92"/>
    <line x1="0" y1="-11" x2="0" y2="11" stroke="#00C8E8" stroke-width="0.9" stroke-dasharray="2,1.8" opacity="0.6"/>
    <path d="M-8,-2 C-6,-5 -3,-3 -5,0" fill="none" stroke="#00C8E8" stroke-width="1.1" stroke-linecap="round" opacity="0.78"/>
    <path d="M-8,4 C-6,1 -3,3 -5,6" fill="none" stroke="#00C8E8" stroke-width="1.1" stroke-linecap="round" opacity="0.78"/>
    <path d="M8,-2 C6,-5 3,-3 5,0" fill="none" stroke="#00C8E8" stroke-width="1.1" stroke-linecap="round" opacity="0.78"/>
    <path d="M8,4 C6,1 3,3 5,6" fill="none" stroke="#00C8E8" stroke-width="1.1" stroke-linecap="round" opacity="0.78"/>
    <circle r="1.5" fill="#00C8E8" opacity="0"><animateMotion dur="1.6s" repeatCount="indefinite" begin="0s" path="M-8,-2 C-6,-5 -3,-3 -5,0"/><animate attributeName="opacity" values="0;1;0" dur="1.6s" repeatCount="indefinite" begin="0s"/></circle>
    <circle r="1.5" fill="#00C8E8" opacity="0"><animateMotion dur="1.6s" repeatCount="indefinite" begin="0.4s" path="M8,-2 C6,-5 3,-3 5,0"/><animate attributeName="opacity" values="0;1;0" dur="1.6s" repeatCount="indefinite" begin="0.4s"/></circle>
    <circle r="1.5" fill="#00C8E8" opacity="0"><animateMotion dur="1.6s" repeatCount="indefinite" begin="0.8s" path="M-8,4 C-6,1 -3,3 -5,6"/><animate attributeName="opacity" values="0;1;0" dur="1.6s" repeatCount="indefinite" begin="0.8s"/></circle>
    <circle r="1.5" fill="#00C8E8" opacity="0"><animateMotion dur="1.6s" repeatCount="indefinite" begin="1.2s" path="M8,4 C6,1 3,3 5,6"/><animate attributeName="opacity" values="0;1;0" dur="1.6s" repeatCount="indefinite" begin="1.2s"/></circle>
    <circle r="18" fill="none" stroke="#00C8E8" stroke-width="1" opacity="0"><animate attributeName="r" values="18;24;18" dur="3s" repeatCount="indefinite"/><animate attributeName="opacity" values="0;0.28;0" dur="3s" repeatCount="indefinite"/></circle>
  </g>
</svg>
