<svg xmlns="http://www.w3.org/2000/svg" viewBox="0 0 340 42" fill="none">
  <defs>
    <linearGradient id="qGrad" x1="0" y1="0" x2="1" y2="1">
      <stop offset="0%" stop-color="#1352C9"/>
      <stop offset="100%" stop-color="#4D8FFF"/>
    </linearGradient>
    <linearGradient id="brainGrad" x1="0" y1="0" x2="1" y2="1">
      <stop offset="0%" stop-color="#4D8FFF"/>
      <stop offset="100%" stop-color="#1352C9"/>
    </linearGradient>
  </defs>
  <!-- First Q with Atom/Quantum orbits -->
  <g transform="translate(0,2)">
    <circle cx="18" cy="18" r="14" stroke="url(#qGrad)" stroke-width="3.2" fill="none"/>
    <line x1="24" y1="26" x2="34" y2="38" stroke="url(#qGrad)" stroke-width="3.2" stroke-linecap="round"/>
    <ellipse cx="18" cy="18" rx="9" ry="3.5" stroke="#1352C9" stroke-width="0.85" fill="none" opacity="0.7" transform="rotate(-30 18 18)"/>
    <ellipse cx="18" cy="18" rx="9" ry="3.5" stroke="#1352C9" stroke-width="0.85" fill="none" opacity="0.7" transform="rotate(30 18 18)"/>
    <ellipse cx="18" cy="18" rx="9" ry="3.5" stroke="#1352C9" stroke-width="0.85" fill="none" opacity="0.7" transform="rotate(90 18 18)"/>
    <circle cx="18" cy="18" r="2.4" fill="url(#qGrad)"/>
    <circle cx="10" cy="14" r="1.2" fill="#1352C9" opacity="0.85"/>
    <circle cx="26" cy="22" r="1.2" fill="#4D8FFF" opacity="0.85"/>
    <circle cx="18" cy="9.5" r="1.2" fill="#1352C9" opacity="0.85"/>
  </g>
  <!-- ANTUM letters - navy -->
  <text x="40" y="30" font-family="'IBM Plex Sans',sans-serif" font-weight="700" font-size="28" letter-spacing="1.2" fill="#0B2240">ANTUM</text>
  <!-- I - blue accent -->
  <text x="190" y="30" font-family="'IBM Plex Sans',sans-serif" font-weight="700" font-size="28" letter-spacing="1.2" fill="#1352C9">I</text>
  <!-- Q with Brain Circuit -->
  <g transform="translate(205,2)">
    <circle cx="18" cy="18" r="14" stroke="url(#brainGrad)" stroke-width="3.2" fill="none"/>
    <line x1="24" y1="26" x2="34" y2="38" stroke="url(#brainGrad)" stroke-width="3.2" stroke-linecap="round"/>
    <path d="M12 12 Q14 8 18 10 Q22 8 24 12" stroke="#4D8FFF" stroke-width="0.85" fill="none" opacity="0.8"/>
    <path d="M11 16 Q14 14 18 16 Q22 14 25 16" stroke="#4D8FFF" stroke-width="0.85" fill="none" opacity="0.8"/>
    <path d="M12 20 Q14 18 18 20 Q22 18 24 20" stroke="#1352C9" stroke-width="0.85" fill="none" opacity="0.8"/>
    <path d="M13 24 Q15 22 18 24 Q21 22 23 24" stroke="#1352C9" stroke-width="0.85" fill="none" opacity="0.8"/>
    <circle cx="14" cy="12" r="1.2" fill="#4D8FFF" opacity="0.85"/>
    <circle cx="22" cy="12" r="1.2" fill="#4D8FFF" opacity="0.85"/>
    <circle cx="18" cy="16" r="1.5" fill="url(#brainGrad)"/>
    <circle cx="12" cy="20" r="1.2" fill="#1352C9" opacity="0.85"/>
    <circle cx="24" cy="20" r="1.2" fill="#1352C9" opacity="0.85"/>
    <circle cx="18" cy="24" r="1.2" fill="#1352C9" opacity="0.85"/>
    <line x1="14" y1="12" x2="18" y2="16" stroke="#4D8FFF" stroke-width="0.5" opacity="0.45"/>
    <line x1="22" y1="12" x2="18" y2="16" stroke="#4D8FFF" stroke-width="0.5" opacity="0.45"/>
    <line x1="18" y1="16" x2="12" y2="20" stroke="#1352C9" stroke-width="0.5" opacity="0.45"/>
    <line x1="18" y1="16" x2="24" y2="20" stroke="#1352C9" stroke-width="0.5" opacity="0.45"/>
    <line x1="12" y1="20" x2="18" y2="24" stroke="#1352C9" stroke-width="0.5" opacity="0.45"/>
    <line x1="24" y1="20" x2="18" y2="24" stroke="#1352C9" stroke-width="0.5" opacity="0.45"/>
  </g>
</svg>
